<svg width="96" height="96" viewBox="0 0 96 96" fill="none" xmlns="http://www.w3.org/2000/svg">
<g id="62a09f192c25c94ad47dc323_Intersect.svg" clip-path="url(#clip0_1_874)">
<path id="Vector" fill-rule="evenodd" clip-rule="evenodd" d="M3.58561 64.0759C3.38868 63.5496 3.20149 63.0206 3.02404 62.489L62.6438 2.86918C63.1754 3.04664 63.7045 3.23383 64.2307 3.43075L3.58561 64.0759ZM5.78058 69.0424C5.53581 68.5656 5.29971 68.0855 5.07229 67.6023L67.7571 4.91744C68.2403 5.14487 68.7204 5.38096 69.1973 5.62573L5.78058 69.0424ZM8.42742 73.5571C8.13992 73.1242 7.86032 72.6876 7.58865 72.2474L72.4023 7.4338C72.8424 7.70548 73.279 7.98507 73.712 8.27258L8.42742 73.5571ZM11.4865 77.6596C11.1594 77.2672 10.8396 76.8708 10.5271 76.4705L76.6253 10.3723C77.0256 10.6847 77.4221 11.0045 77.8144 11.3317L11.4865 77.6596ZM14.9343 81.3733C14.7528 81.1974 14.5723 81.0198 14.3929 80.8405C14.2136 80.6611 14.0359 80.4806 13.8601 80.2991L80.4539 13.7052C80.6355 13.8811 80.8159 14.0587 80.9953 14.2381C81.1747 14.4175 81.3523 14.5979 81.5282 14.7795L14.9343 81.3733ZM18.7629 84.7062C18.3626 84.3938 17.9662 84.074 17.5738 83.7469L83.9017 17.419C84.2289 17.8113 84.5487 18.2078 84.8611 18.6081L18.7629 84.7062ZM22.986 87.6448C22.5458 87.3731 22.1092 87.0935 21.6763 86.806L86.9608 21.5214C87.2483 21.9543 87.5279 22.391 87.7996 22.8311L22.986 87.6448ZM27.6311 90.1611C27.1479 89.9337 26.6678 89.6976 26.191 89.4528L89.6077 26.0361C89.8524 26.513 90.0885 26.9931 90.316 27.4763L27.6311 90.1611ZM32.7444 92.2094C32.2128 92.0319 31.6838 91.8447 31.1575 91.6478L91.8026 31.0027C91.9996 31.5289 92.1868 32.058 92.3642 32.5896L32.7444 92.2094ZM38.4018 93.7136C37.813 93.5956 37.226 93.4664 36.6411 93.3258L93.4806 36.4863C93.6212 37.0711 93.7505 37.6581 93.8684 38.2469L38.4018 93.7136ZM45.0732 94.5617C44.4073 94.5248 43.7419 94.4739 43.0777 94.4088L94.5637 42.9228C94.6287 43.5871 94.6797 44.2524 94.7166 44.9184L45.0732 94.5617ZM52.3961 94.4004C51.6232 94.4775 50.8488 94.5355 50.0736 94.5745L94.7293 49.9187C94.6903 50.694 94.6323 51.4684 94.5552 52.2413L52.3961 94.4004ZM61.3321 92.626C60.3625 92.9183 59.3854 93.1788 58.4023 93.4073L93.5621 58.2475C93.3336 59.2305 93.0732 60.2077 92.7808 61.1772L61.3321 92.626ZM75.7365 85.3831C73.8558 86.7803 71.8947 88.0193 69.8712 89.0999L89.2548 69.7164C88.1741 71.7398 86.9352 73.701 85.538 75.5816L75.7365 85.3831ZM58.7471 1.7528L1.90765 58.5923C1.76706 58.0074 1.63779 57.4204 1.51986 56.8316L56.9864 1.36501C57.5753 1.48294 58.1623 1.61221 58.7471 1.7528ZM50.315 0.516844C50.981 0.553737 51.6463 0.604703 52.3106 0.669742L0.824591 52.1557C0.759555 51.4915 0.708583 50.8261 0.671694 50.1602L50.315 0.516844ZM42.9921 0.678202C43.765 0.601104 44.5394 0.543066 45.3147 0.504089L0.658936 45.1598C0.697908 44.3846 0.75595 43.6102 0.83305 42.8373L42.9921 0.678202ZM34.0562 2.45259C35.0257 2.16023 36.0029 1.8998 36.9859 1.67128L1.82612 36.8311C2.05464 35.848 2.31508 34.8709 2.60744 33.9013L34.0562 2.45259ZM19.6518 9.69544C21.5324 8.29824 23.4936 7.05931 25.517 5.97864L6.13349 25.3622C7.21416 23.3387 8.45309 21.3776 9.85029 19.4969L19.6518 9.69544Z" fill="#EF5DA8"/>
</g>
<defs>
<clipPath id="clip0_1_874">
<rect width="95" height="95" fill="white" transform="translate(0.449951 0.294983)"/>
</clipPath>
</defs>
</svg>
