<svg width="234" height="26" viewBox="0 0 234 26" fill="none" xmlns="http://www.w3.org/2000/svg">
<g id="Frame">
<path id="Vector" d="M15.1667 2.66072V6.08839H6.33968V11.5181H13.104V14.8851H6.33968V23.8334H2.09302V2.66072H15.1667ZM25.6399 24.1064C24.0223 24.1064 22.5663 23.7526 21.272 23.0447C19.9777 22.3167 18.9565 21.2955 18.2083 19.9811C17.4803 18.6666 17.1163 17.1499 17.1163 15.4311C17.1163 13.7122 17.4904 12.1955 18.2387 10.8811C19.0071 9.5666 20.0485 8.5555 21.363 7.84772C22.6774 7.11972 24.1436 6.75572 25.7613 6.75572C27.3791 6.75572 28.8453 7.11972 30.1596 7.84772C31.4741 8.5555 32.5054 9.5666 33.2536 10.8811C34.0221 12.1955 34.4063 13.7122 34.4063 15.4311C34.4063 17.1499 34.0119 18.6666 33.2233 19.9811C32.455 21.2955 31.4033 22.3167 30.0686 23.0447C28.7543 23.7526 27.2779 24.1064 25.6399 24.1064ZM25.6399 20.4057C26.4084 20.4057 27.1263 20.2237 27.7936 19.8597C28.4813 19.4755 29.0273 18.9093 29.4316 18.1611C29.8361 17.4128 30.0383 16.5028 30.0383 15.4311C30.0383 13.8335 29.6136 12.6101 28.7643 11.7607C27.9353 10.8912 26.9139 10.4564 25.7006 10.4564C24.4873 10.4564 23.4661 10.8912 22.6369 11.7607C21.8281 12.6101 21.4237 13.8335 21.4237 15.4311C21.4237 17.0286 21.8179 18.2622 22.6066 19.1317C23.4156 19.9811 24.4266 20.4057 25.6399 20.4057ZM44.9835 24.1064C43.3656 24.1064 41.9096 23.7526 40.6155 23.0447C39.3211 22.3167 38.3 21.2955 37.5518 19.9811C36.8238 18.6666 36.4598 17.1499 36.4598 15.4311C36.4598 13.7122 36.8338 12.1955 37.5822 10.8811C38.3505 9.5666 39.392 8.5555 40.7065 7.84772C42.0208 7.11972 43.487 6.75572 45.1048 6.75572C46.7225 6.75572 48.1886 7.11972 49.5032 7.84772C50.8175 8.5555 51.8488 9.5666 52.5972 10.8811C53.3655 12.1955 53.7498 13.7122 53.7498 15.4311C53.7498 17.1499 53.3555 18.6666 52.5668 19.9811C51.7983 21.2955 50.7468 22.3167 49.4122 23.0447C48.0976 23.7526 46.6215 24.1064 44.9835 24.1064ZM44.9835 20.4057C45.7518 20.4057 46.4698 20.2237 47.1372 19.8597C47.8246 19.4755 48.3706 18.9093 48.7752 18.1611C49.1795 17.4128 49.3818 16.5028 49.3818 15.4311C49.3818 13.8335 48.9572 12.6101 48.1078 11.7607C47.2786 10.8912 46.2575 10.4564 45.0442 10.4564C43.8308 10.4564 42.8095 10.8912 41.9805 11.7607C41.1715 12.6101 40.7672 13.8335 40.7672 15.4311C40.7672 17.0286 41.1615 18.2622 41.9502 19.1317C42.759 19.9811 43.7702 20.4057 44.9835 20.4057ZM55.7728 15.3704C55.7728 13.6717 56.1065 12.1652 56.7738 10.8507C57.4613 9.53627 58.3917 8.52517 59.5645 7.81739C60.7373 7.1096 62.0417 6.75572 63.4775 6.75572C64.5695 6.75572 65.611 6.99839 66.6018 7.48372C67.5927 7.94884 68.3813 8.57572 68.9678 9.36439V1.38672H73.2752V23.8334H68.9678V21.3461C68.442 22.1752 67.704 22.8426 66.7535 23.3481C65.803 23.8535 64.701 24.1064 63.4472 24.1064C62.0317 24.1064 60.7373 23.7424 59.5645 23.0144C58.3917 22.2864 57.4613 21.2652 56.7738 19.9507C56.1065 18.6161 55.7728 17.0893 55.7728 15.3704ZM68.9982 15.4311C68.9982 14.3997 68.796 13.5201 68.3915 12.7921C67.987 12.0438 67.441 11.4776 66.7535 11.0934C66.066 10.6889 65.3278 10.4867 64.5392 10.4867C63.7505 10.4867 63.0225 10.6788 62.3552 11.0631C61.6878 11.4473 61.1418 12.0135 60.7172 12.7617C60.3127 13.4897 60.1105 14.3593 60.1105 15.3704C60.1105 16.3815 60.3127 17.2713 60.7172 18.0397C61.1418 18.7879 61.6878 19.3643 62.3552 19.7687C63.0427 20.1732 63.7707 20.3754 64.5392 20.3754C65.3278 20.3754 66.066 20.1833 66.7535 19.7991C67.441 19.3946 67.987 18.8284 68.3915 18.1004C68.796 17.3522 68.9982 16.4624 68.9982 15.4311ZM81.6695 20.4664H88.6462V23.8334H77.4228V2.66072H81.6695V20.4664ZM98.8074 24.1064C97.1895 24.1064 95.7335 23.7526 94.4394 23.0447C93.145 22.3167 92.1239 21.2955 91.3757 19.9811C90.6477 18.6666 90.2837 17.1499 90.2837 15.4311C90.2837 13.7122 90.6577 12.1955 91.4061 10.8811C92.1744 9.5666 93.2159 8.5555 94.5304 7.84772C95.8447 7.11972 97.3109 6.75572 98.9287 6.75572C100.546 6.75572 102.013 7.11972 103.327 7.84772C104.641 8.5555 105.673 9.5666 106.421 10.8811C107.189 12.1955 107.574 13.7122 107.574 15.4311C107.574 17.1499 107.179 18.6666 106.391 19.9811C105.622 21.2955 104.571 22.3167 103.236 23.0447C101.922 23.7526 100.445 24.1064 98.8074 24.1064ZM98.8074 20.4057C99.5757 20.4057 100.294 20.2237 100.961 19.8597C101.649 19.4755 102.195 18.9093 102.599 18.1611C103.003 17.4128 103.206 16.5028 103.206 15.4311C103.206 13.8335 102.781 12.6101 101.932 11.7607C101.103 10.8912 100.081 10.4564 98.8681 10.4564C97.6547 10.4564 96.6334 10.8912 95.8044 11.7607C94.9954 12.6101 94.591 13.8335 94.591 15.4311C94.591 17.0286 94.9854 18.2622 95.7741 19.1317C96.5829 19.9811 97.5941 20.4057 98.8074 20.4057ZM117.696 19.9204L121.942 7.02872H126.462L120.244 23.8334H115.087L108.899 7.02872H113.449L117.696 19.9204ZM144.469 15.0671C144.469 15.6737 144.428 16.2197 144.348 16.7051H132.063C132.164 17.9184 132.588 18.8688 133.337 19.5564C134.085 20.2439 135.005 20.5877 136.097 20.5877C137.674 20.5877 138.797 19.9103 139.464 18.5554H144.044C143.559 20.1732 142.629 21.5078 141.254 22.5594C139.878 23.5907 138.19 24.1064 136.188 24.1064C134.57 24.1064 133.114 23.7526 131.82 23.0447C130.546 22.3167 129.545 21.2955 128.817 19.9811C128.109 18.6666 127.755 17.1499 127.755 15.4311C127.755 13.6919 128.109 12.1652 128.817 10.8507C129.525 9.53627 130.516 8.52517 131.79 7.81739C133.064 7.1096 134.53 6.75572 136.188 6.75572C137.786 6.75572 139.211 7.0995 140.465 7.78705C141.739 8.4746 142.72 9.45539 143.407 10.7294C144.115 11.9832 144.469 13.4291 144.469 15.0671ZM140.071 13.8537C140.05 12.7617 139.656 11.8922 138.888 11.2451C138.119 10.5777 137.179 10.2441 136.067 10.2441C135.015 10.2441 134.125 10.5676 133.397 11.2147C132.689 11.8416 132.255 12.7213 132.093 13.8537H140.071ZM151.815 9.63739C152.361 8.7476 153.069 8.04993 153.939 7.54439C154.828 7.03884 155.839 6.78605 156.972 6.78605V11.2451H155.85C154.515 11.2451 153.504 11.5585 152.816 12.1854C152.149 12.8123 151.815 13.9043 151.815 15.4614V23.8334H147.569V7.02872H151.815V9.63739ZM161.713 24.0457C160.945 24.0457 160.308 23.8132 159.802 23.3481C159.317 22.8627 159.074 22.2662 159.074 21.5584C159.074 20.8506 159.317 20.2642 159.802 19.7991C160.308 19.3137 160.945 19.0711 161.713 19.0711C162.461 19.0711 163.078 19.3137 163.563 19.7991C164.049 20.2642 164.291 20.8506 164.291 21.5584C164.291 22.2662 164.049 22.8627 163.563 23.3481C163.078 23.8132 162.461 24.0457 161.713 24.0457ZM166.62 15.4311C166.62 13.6919 166.974 12.1753 167.682 10.8811C168.389 9.5666 169.37 8.5555 170.624 7.84772C171.878 7.11972 173.313 6.75572 174.931 6.75572C177.014 6.75572 178.733 7.2815 180.088 8.33305C181.463 9.36439 182.383 10.8204 182.848 12.7011H178.268C178.025 11.9731 177.611 11.4068 177.024 11.0024C176.458 10.5777 175.75 10.3654 174.901 10.3654C173.688 10.3654 172.727 10.8103 172.019 11.7001C171.311 12.5696 170.958 13.8133 170.958 15.4311C170.958 17.0286 171.311 18.2723 172.019 19.1621C172.727 20.0316 173.688 20.4664 174.901 20.4664C176.62 20.4664 177.742 19.6979 178.268 18.1611H182.848C182.383 19.9811 181.463 21.4269 180.088 22.4987C178.713 23.5706 176.994 24.1064 174.931 24.1064C173.313 24.1064 171.878 23.7526 170.624 23.0447C169.37 22.3167 168.389 21.3056 167.682 20.0114C166.974 18.6969 166.62 17.1702 166.62 15.4311ZM190.206 1.38672V23.8334H185.959V1.38672H190.206ZM210.266 7.02872V23.8334H205.989V21.7101C205.443 22.4381 204.725 23.0144 203.835 23.4391C202.966 23.8436 202.015 24.0457 200.984 24.0457C199.669 24.0457 198.507 23.7727 197.496 23.2267C196.484 22.6606 195.686 21.8416 195.099 20.7697C194.533 19.6777 194.25 18.3835 194.25 16.8871V7.02872H198.497V16.2804C198.497 17.6151 198.83 18.6464 199.498 19.3744C200.165 20.0822 201.075 20.4361 202.228 20.4361C203.4 20.4361 204.321 20.0822 204.988 19.3744C205.655 18.6464 205.989 17.6151 205.989 16.2804V7.02872H210.266ZM218.703 9.48572C219.249 8.67684 219.997 8.0196 220.948 7.51405C221.919 7.0085 223.019 6.75572 224.254 6.75572C225.689 6.75572 226.984 7.1096 228.137 7.81739C229.309 8.52517 230.23 9.53627 230.897 10.8507C231.584 12.1449 231.929 13.6515 231.929 15.3704C231.929 17.0893 231.584 18.6161 230.897 19.9507C230.23 21.2652 229.309 22.2864 228.137 23.0144C226.984 23.7424 225.689 24.1064 224.254 24.1064C223 24.1064 221.897 23.8637 220.948 23.3784C220.016 22.8729 219.269 22.2257 218.703 21.4371V23.8334H214.456V1.38672H218.703V9.48572ZM227.591 15.3704C227.591 14.3593 227.379 13.4897 226.954 12.7617C226.549 12.0135 226.003 11.4473 225.316 11.0631C224.649 10.6788 223.921 10.4867 223.132 10.4867C222.363 10.4867 221.635 10.6889 220.948 11.0934C220.281 11.4776 219.735 12.0438 219.31 12.7921C218.905 13.5403 218.703 14.4199 218.703 15.4311C218.703 16.4422 218.905 17.3218 219.31 18.0701C219.735 18.8183 220.281 19.3946 220.948 19.7991C221.635 20.1833 222.363 20.3754 223.132 20.3754C223.921 20.3754 224.649 20.1732 225.316 19.7687C226.003 19.3643 226.549 18.7879 226.954 18.0397C227.379 17.2915 227.591 16.4017 227.591 15.3704Z" fill="white"/>
</g>
</svg>
