<svg width="15" height="15" viewBox="0 0 15 15" fill="none" xmlns="http://www.w3.org/2000/svg">
<path opacity="0.6" d="M7.23474 3.73975C9.20349 3.73975 10.8285 5.36475 10.8285 7.3335C10.8285 9.3335 9.20349 10.9272 7.23474 10.9272C5.23474 10.9272 3.64099 9.3335 3.64099 7.3335C3.64099 5.36475 5.23474 3.73975 7.23474 3.73975ZM7.23474 9.67725C8.51599 9.67725 9.54724 8.646 9.54724 7.3335C9.54724 6.05225 8.51599 5.021 7.23474 5.021C5.92224 5.021 4.89099 6.05225 4.89099 7.3335C4.89099 8.646 5.95349 9.67725 7.23474 9.67725ZM11.7972 3.61475C11.7972 4.0835 11.4222 4.4585 10.9535 4.4585C10.4847 4.4585 10.1097 4.0835 10.1097 3.61475C10.1097 3.146 10.4847 2.771 10.9535 2.771C11.4222 2.771 11.7972 3.146 11.7972 3.61475ZM14.1722 4.4585C14.2347 5.61475 14.2347 9.0835 14.1722 10.2397C14.1097 11.3647 13.8597 12.3335 13.0472 13.1772C12.2347 13.9897 11.2347 14.2397 10.1097 14.3022C8.95349 14.3647 5.48474 14.3647 4.32849 14.3022C3.20349 14.2397 2.23474 13.9897 1.39099 13.1772C0.578491 12.3335 0.328491 11.3647 0.265991 10.2397C0.203491 9.0835 0.203491 5.61475 0.265991 4.4585C0.328491 3.3335 0.578491 2.3335 1.39099 1.521C2.23474 0.708496 3.20349 0.458496 4.32849 0.395996C5.48474 0.333496 8.95349 0.333496 10.1097 0.395996C11.2347 0.458496 12.2347 0.708496 13.0472 1.521C13.8597 2.3335 14.1097 3.3335 14.1722 4.4585ZM12.6722 11.4585C13.0472 10.5522 12.9535 8.36475 12.9535 7.3335C12.9535 6.3335 13.0472 4.146 12.6722 3.2085C12.4222 2.61475 11.9535 2.11475 11.3597 1.896C10.4222 1.521 8.23474 1.61475 7.23474 1.61475C6.20349 1.61475 4.01599 1.521 3.10974 1.896C2.48474 2.146 2.01599 2.61475 1.76599 3.2085C1.39099 4.146 1.48474 6.3335 1.48474 7.3335C1.48474 8.36475 1.39099 10.5522 1.76599 11.4585C2.01599 12.0835 2.48474 12.5522 3.10974 12.8022C4.01599 13.1772 6.20349 13.0835 7.23474 13.0835C8.23474 13.0835 10.4222 13.1772 11.3597 12.8022C11.9535 12.5522 12.4535 12.0835 12.6722 11.4585Z" fill="white"/>
</svg>
