<svg width="255" height="22" viewBox="0 0 255 22" fill="none" xmlns="http://www.w3.org/2000/svg">
<g id="62a0965b6c90eae7e62fb01e_Line.svg" clip-path="url(#clip0_1_862)">
<path id="Vector" d="M242.198 0.899335C237.323 0.346294 178.761 -0.716916 145.43 0.899342C81.2782 4.0102 24.2935 11.6145 11.0328 14.3797C-2.22776 17.1449 -2.70048 19.0525 5.18431 19.7438C13.4273 20.4664 27.519 20.2558 36.1205 18.5275C34.8064 19.334 33.8559 21.8621 36.1205 21.2927C38.1566 20.7807 111.025 15.071 115.326 15.071C119.627 15.071 130.737 15.7623 134.679 15.071C138.621 14.3797 232.714 15.9988 238.971 16.108C249.251 16.2873 252.477 16.2873 253.308 15.7623C254.666 14.9046 251.158 10.6928 249.366 9.19495C253.91 10.4112 254.627 9.71989 253.91 7.99165C252.572 4.76636 248.29 1.59064 242.198 0.899335Z" fill="#EF5DA8"/>
</g>
<defs>
<clipPath id="clip0_1_862">
<rect width="254.15" height="21.3338" fill="white" transform="translate(0 0.041687)"/>
</clipPath>
</defs>
</svg>
