<svg width="15" height="15" viewBox="0 0 15 15" fill="none" xmlns="http://www.w3.org/2000/svg">
<path opacity="0.6" d="M13.8545 0.333496C14.3857 0.333496 14.8545 0.802246 14.8545 1.36475V13.3335C14.8545 13.896 14.3857 14.3335 13.8545 14.3335H1.82324C1.29199 14.3335 0.854492 13.896 0.854492 13.3335V1.36475C0.854492 0.802246 1.29199 0.333496 1.82324 0.333496H13.8545ZM5.07324 12.3335V5.67725H3.01074V12.3335H5.07324ZM4.04199 4.73975C4.69824 4.73975 5.22949 4.2085 5.22949 3.55225C5.22949 2.896 4.69824 2.3335 4.04199 2.3335C3.35449 2.3335 2.82324 2.896 2.82324 3.55225C2.82324 4.2085 3.35449 4.73975 4.04199 4.73975ZM12.8545 12.3335V8.67725C12.8545 6.896 12.4482 5.48975 10.3545 5.48975C9.35449 5.48975 8.66699 6.05225 8.38574 6.5835H8.35449V5.67725H6.38574V12.3335H8.44824V9.05225C8.44824 8.17725 8.60449 7.3335 9.69824 7.3335C10.7607 7.3335 10.7607 8.3335 10.7607 9.0835V12.3335H12.8545Z" fill="white"/>
</svg>
