<svg width="234" height="26" viewBox="0 0 234 26" fill="none" xmlns="http://www.w3.org/2000/svg">
<g id="Frame">
<path id="Vector" d="M15.1667 2.66067V6.08834H6.33968V11.518H13.104V14.885H6.33968V23.8333H2.09302V2.66067H15.1667ZM25.6399 24.1063C24.0223 24.1063 22.5663 23.7525 21.272 23.0447C19.9777 22.3167 18.9565 21.2955 18.2083 19.981C17.4803 18.6666 17.1163 17.1499 17.1163 15.431C17.1163 13.7121 17.4904 12.1955 18.2387 10.881C19.0071 9.56655 20.0485 8.55546 21.363 7.84767C22.6774 7.11967 24.1436 6.75567 25.7613 6.75567C27.3791 6.75567 28.8453 7.11967 30.1596 7.84767C31.4741 8.55546 32.5054 9.56655 33.2536 10.881C34.0221 12.1955 34.4063 13.7121 34.4063 15.431C34.4063 17.1499 34.0119 18.6666 33.2233 19.981C32.455 21.2955 31.4033 22.3167 30.0686 23.0447C28.7543 23.7525 27.2779 24.1063 25.6399 24.1063ZM25.6399 20.4057C26.4084 20.4057 27.1263 20.2237 27.7936 19.8597C28.4813 19.4755 29.0273 18.9092 29.4316 18.161C29.8361 17.4128 30.0383 16.5028 30.0383 15.431C30.0383 13.8335 29.6136 12.61 28.7643 11.7607C27.9353 10.8911 26.9139 10.4563 25.7006 10.4563C24.4873 10.4563 23.4661 10.8911 22.6369 11.7607C21.8281 12.61 21.4237 13.8335 21.4237 15.431C21.4237 17.0286 21.8179 18.2621 22.6066 19.1317C23.4156 19.981 24.4266 20.4057 25.6399 20.4057ZM44.9835 24.1063C43.3656 24.1063 41.9096 23.7525 40.6155 23.0447C39.3211 22.3167 38.3 21.2955 37.5518 19.981C36.8238 18.6666 36.4598 17.1499 36.4598 15.431C36.4598 13.7121 36.8338 12.1955 37.5822 10.881C38.3505 9.56655 39.392 8.55546 40.7065 7.84767C42.0208 7.11967 43.487 6.75567 45.1048 6.75567C46.7225 6.75567 48.1886 7.11967 49.5032 7.84767C50.8175 8.55546 51.8488 9.56655 52.5972 10.881C53.3655 12.1955 53.7498 13.7121 53.7498 15.431C53.7498 17.1499 53.3555 18.6666 52.5668 19.981C51.7983 21.2955 50.7468 22.3167 49.4122 23.0447C48.0976 23.7525 46.6215 24.1063 44.9835 24.1063ZM44.9835 20.4057C45.7518 20.4057 46.4698 20.2237 47.1372 19.8597C47.8246 19.4755 48.3706 18.9092 48.7752 18.161C49.1795 17.4128 49.3818 16.5028 49.3818 15.431C49.3818 13.8335 48.9572 12.61 48.1078 11.7607C47.2786 10.8911 46.2575 10.4563 45.0442 10.4563C43.8308 10.4563 42.8095 10.8911 41.9805 11.7607C41.1715 12.61 40.7672 13.8335 40.7672 15.431C40.7672 17.0286 41.1615 18.2621 41.9502 19.1317C42.759 19.981 43.7702 20.4057 44.9835 20.4057ZM55.7728 15.3703C55.7728 13.6717 56.1065 12.1651 56.7738 10.8507C57.4613 9.53622 58.3917 8.52513 59.5645 7.81734C60.7373 7.10955 62.0417 6.75567 63.4775 6.75567C64.5695 6.75567 65.611 6.99834 66.6018 7.48367C67.5927 7.94879 68.3813 8.57567 68.9678 9.36434V1.38667H73.2752V23.8333H68.9678V21.346C68.442 22.1752 67.704 22.8425 66.7535 23.348C65.803 23.8535 64.701 24.1063 63.4472 24.1063C62.0317 24.1063 60.7373 23.7423 59.5645 23.0143C58.3917 22.2863 57.4613 21.2651 56.7738 19.9507C56.1065 18.616 55.7728 17.0892 55.7728 15.3703ZM68.9982 15.431C68.9982 14.3997 68.796 13.52 68.3915 12.792C67.987 12.0438 67.441 11.4776 66.7535 11.0933C66.066 10.6889 65.3278 10.4867 64.5392 10.4867C63.7505 10.4867 63.0225 10.6788 62.3552 11.063C61.6878 11.4472 61.1418 12.0135 60.7172 12.7617C60.3127 13.4897 60.1105 14.3592 60.1105 15.3703C60.1105 16.3815 60.3127 17.2712 60.7172 18.0397C61.1418 18.7879 61.6878 19.3642 62.3552 19.7687C63.0427 20.1731 63.7707 20.3753 64.5392 20.3753C65.3278 20.3753 66.066 20.1832 66.7535 19.799C67.441 19.3946 67.987 18.8283 68.3915 18.1003C68.796 17.3521 68.9982 16.4623 68.9982 15.431ZM81.6695 20.4663H88.6462V23.8333H77.4228V2.66067H81.6695V20.4663ZM98.8074 24.1063C97.1895 24.1063 95.7335 23.7525 94.4394 23.0447C93.145 22.3167 92.1239 21.2955 91.3757 19.981C90.6477 18.6666 90.2837 17.1499 90.2837 15.431C90.2837 13.7121 90.6577 12.1955 91.4061 10.881C92.1744 9.56655 93.2159 8.55546 94.5304 7.84767C95.8447 7.11967 97.3109 6.75567 98.9287 6.75567C100.546 6.75567 102.013 7.11967 103.327 7.84767C104.641 8.55546 105.673 9.56655 106.421 10.881C107.189 12.1955 107.574 13.7121 107.574 15.431C107.574 17.1499 107.179 18.6666 106.391 19.981C105.622 21.2955 104.571 22.3167 103.236 23.0447C101.922 23.7525 100.445 24.1063 98.8074 24.1063ZM98.8074 20.4057C99.5757 20.4057 100.294 20.2237 100.961 19.8597C101.649 19.4755 102.195 18.9092 102.599 18.161C103.003 17.4128 103.206 16.5028 103.206 15.431C103.206 13.8335 102.781 12.61 101.932 11.7607C101.103 10.8911 100.081 10.4563 98.8681 10.4563C97.6547 10.4563 96.6334 10.8911 95.8044 11.7607C94.9954 12.61 94.591 13.8335 94.591 15.431C94.591 17.0286 94.9854 18.2621 95.7741 19.1317C96.5829 19.981 97.5941 20.4057 98.8074 20.4057ZM117.696 19.9203L121.942 7.02867H126.462L120.244 23.8333H115.087L108.899 7.02867H113.449L117.696 19.9203ZM144.469 15.067C144.469 15.6737 144.428 16.2197 144.348 16.705H132.063C132.164 17.9183 132.588 18.8688 133.337 19.5563C134.085 20.2439 135.005 20.5877 136.097 20.5877C137.674 20.5877 138.797 19.9102 139.464 18.5553H144.044C143.559 20.1731 142.629 21.5078 141.254 22.5593C139.878 23.5907 138.19 24.1063 136.188 24.1063C134.57 24.1063 133.114 23.7525 131.82 23.0447C130.546 22.3167 129.545 21.2955 128.817 19.981C128.109 18.6666 127.755 17.1499 127.755 15.431C127.755 13.6919 128.109 12.1651 128.817 10.8507C129.525 9.53622 130.516 8.52513 131.79 7.81734C133.064 7.10955 134.53 6.75567 136.188 6.75567C137.786 6.75567 139.211 7.09946 140.465 7.78701C141.739 8.47455 142.72 9.45534 143.407 10.7293C144.115 11.9831 144.469 13.429 144.469 15.067ZM140.071 13.8537C140.05 12.7617 139.656 11.8921 138.888 11.245C138.119 10.5777 137.179 10.244 136.067 10.244C135.015 10.244 134.125 10.5676 133.397 11.2147C132.689 11.8416 132.255 12.7212 132.093 13.8537H140.071ZM151.815 9.63734C152.361 8.74756 153.069 8.04989 153.939 7.54434C154.828 7.03879 155.839 6.78601 156.972 6.78601V11.245H155.85C154.515 11.245 153.504 11.5585 152.816 12.1853C152.149 12.8122 151.815 13.9042 151.815 15.4613V23.8333H147.569V7.02867H151.815V9.63734ZM161.713 24.0457C160.945 24.0457 160.308 23.8132 159.802 23.348C159.317 22.8627 159.074 22.2662 159.074 21.5583C159.074 20.8506 159.317 20.2641 159.802 19.799C160.308 19.3137 160.945 19.071 161.713 19.071C162.461 19.071 163.078 19.3137 163.563 19.799C164.049 20.2641 164.291 20.8506 164.291 21.5583C164.291 22.2662 164.049 22.8627 163.563 23.348C163.078 23.8132 162.461 24.0457 161.713 24.0457ZM166.62 15.431C166.62 13.6919 166.974 12.1752 167.682 10.881C168.389 9.56655 169.37 8.55546 170.624 7.84767C171.878 7.11967 173.313 6.75567 174.931 6.75567C177.014 6.75567 178.733 7.28146 180.088 8.33301C181.463 9.36434 182.383 10.8203 182.848 12.701H178.268C178.025 11.973 177.611 11.4068 177.024 11.0023C176.458 10.5777 175.75 10.3653 174.901 10.3653C173.688 10.3653 172.727 10.8102 172.019 11.7C171.311 12.5696 170.958 13.8132 170.958 15.431C170.958 17.0286 171.311 18.2722 172.019 19.162C172.727 20.0316 173.688 20.4663 174.901 20.4663C176.62 20.4663 177.742 19.6979 178.268 18.161H182.848C182.383 19.981 181.463 21.4269 180.088 22.4987C178.713 23.5705 176.994 24.1063 174.931 24.1063C173.313 24.1063 171.878 23.7525 170.624 23.0447C169.37 22.3167 168.389 21.3056 167.682 20.0113C166.974 18.6969 166.62 17.1701 166.62 15.431ZM190.206 1.38667V23.8333H185.959V1.38667H190.206ZM210.266 7.02867V23.8333H205.989V21.71C205.443 22.438 204.725 23.0143 203.835 23.439C202.966 23.8435 202.015 24.0457 200.984 24.0457C199.669 24.0457 198.507 23.7727 197.496 23.2267C196.484 22.6605 195.686 21.8415 195.099 20.7697C194.533 19.6777 194.25 18.3835 194.25 16.887V7.02867H198.497V16.2803C198.497 17.615 198.83 18.6463 199.498 19.3743C200.165 20.0821 201.075 20.436 202.228 20.436C203.4 20.436 204.321 20.0821 204.988 19.3743C205.655 18.6463 205.989 17.615 205.989 16.2803V7.02867H210.266ZM218.703 9.48567C219.249 8.67679 219.997 8.01956 220.948 7.51401C221.919 7.00846 223.019 6.75567 224.254 6.75567C225.689 6.75567 226.984 7.10955 228.137 7.81734C229.309 8.52513 230.23 9.53622 230.897 10.8507C231.584 12.1449 231.929 13.6515 231.929 15.3703C231.929 17.0892 231.584 18.616 230.897 19.9507C230.23 21.2651 229.309 22.2863 228.137 23.0143C226.984 23.7423 225.689 24.1063 224.254 24.1063C223 24.1063 221.897 23.8637 220.948 23.3783C220.016 22.8729 219.269 22.2257 218.703 21.437V23.8333H214.456V1.38667H218.703V9.48567ZM227.591 15.3703C227.591 14.3592 227.379 13.4897 226.954 12.7617C226.549 12.0135 226.003 11.4472 225.316 11.063C224.649 10.6788 223.921 10.4867 223.132 10.4867C222.363 10.4867 221.635 10.6889 220.948 11.0933C220.281 11.4776 219.735 12.0438 219.31 12.792C218.905 13.5402 218.703 14.4199 218.703 15.431C218.703 16.4421 218.905 17.3218 219.31 18.07C219.735 18.8182 220.281 19.3946 220.948 19.799C221.635 20.1832 222.363 20.3753 223.132 20.3753C223.921 20.3753 224.649 20.1731 225.316 19.7687C226.003 19.3642 226.549 18.7879 226.954 18.0397C227.379 17.2915 227.591 16.4017 227.591 15.3703Z" fill="#222222"/>
</g>
</svg>
