<svg width="17" height="14" viewBox="0 0 17 14" fill="none" xmlns="http://www.w3.org/2000/svg">
<path opacity="0.6" d="M15.1278 4.0835C15.1278 4.23975 15.1278 4.36475 15.1278 4.521C15.1278 8.86475 11.8466 13.8335 5.81531 13.8335C3.94031 13.8335 2.22156 13.3022 0.784058 12.3647C1.03406 12.396 1.28406 12.4272 1.56531 12.4272C3.09656 12.4272 4.50281 11.896 5.62781 11.021C4.19031 10.9897 2.97156 10.0522 2.56531 8.73975C2.78406 8.771 2.97156 8.80225 3.19031 8.80225C3.47156 8.80225 3.78406 8.73975 4.03406 8.67725C2.53406 8.36475 1.40906 7.05225 1.40906 5.4585V5.42725C1.84656 5.67725 2.37781 5.80225 2.90906 5.8335C2.00281 5.23975 1.44031 4.23975 1.44031 3.11475C1.44031 2.48975 1.59656 1.92725 1.87781 1.4585C3.50281 3.42725 5.94031 4.73975 8.65906 4.896C8.59656 4.646 8.56531 4.396 8.56531 4.146C8.56531 2.3335 10.0341 0.864746 11.8466 0.864746C12.7841 0.864746 13.6278 1.23975 14.2528 1.896C14.9716 1.73975 15.6903 1.4585 16.3153 1.0835C16.0653 1.86475 15.5653 2.48975 14.8778 2.896C15.5341 2.8335 16.1903 2.646 16.7528 2.396C16.3153 3.05225 15.7528 3.61475 15.1278 4.0835Z" fill="white"/>
</svg>
